<svg viewBox="0 0 85 85" fill="none" xmlns="http://www.w3.org/2000/svg"><path d="M77.917 46.042c-2.965 0-5.504 1.834-6.556 4.427H63.75V34.53h7.611c1.052 2.593 3.591 4.427 6.556 4.427A7.09 7.09 0 0 0 85 31.875a7.09 7.09 0 0 0-7.083-7.083c-2.965 0-5.504 1.834-6.556 4.427h-7.986a10.603 10.603 0 0 0-7.59-7.59v-7.99c2.589-1.052 4.423-3.591 4.423-6.556A7.09 7.09 0 0 0 53.125 0a7.09 7.09 0 0 0-7.083 7.083c0 2.965 1.834 5.504 4.427 6.556v7.611H34.53v-7.611c2.593-1.052 4.427-3.591 4.427-6.556A7.09 7.09 0 0 0 31.875 0a7.09 7.09 0 0 0-7.083 7.083c0 2.965 1.834 5.504 4.427 6.556v7.986a10.608 10.608 0 0 0-7.59 7.594h-7.99c-1.052-2.593-3.591-4.427-6.556-4.427A7.09 7.09 0 0 0 0 31.875a7.09 7.09 0 0 0 7.083 7.083c2.965 0 5.504-1.834 6.556-4.427h7.611V50.47h-7.611c-1.052-2.593-3.591-4.427-6.556-4.427A7.09 7.09 0 0 0 0 53.125a7.09 7.09 0 0 0 7.083 7.083c2.965 0 5.504-1.834 6.556-4.427h7.986a10.603 10.603 0 0 0 7.59 7.59v7.986c-2.589 1.056-4.423 3.595-4.423 6.56A7.09 7.09 0 0 0 31.875 85a7.09 7.09 0 0 0 7.083-7.083c0-2.965-1.834-5.504-4.427-6.556V63.75H50.47v7.611c-2.593 1.052-4.427 3.591-4.427 6.556A7.09 7.09 0 0 0 53.125 85a7.09 7.09 0 0 0 7.083-7.083c0-2.965-1.834-5.504-4.427-6.556v-7.986a10.603 10.603 0 0 0 7.59-7.59h7.986c1.056 2.589 3.595 4.423 6.56 4.423A7.09 7.09 0 0 0 85 53.125a7.09 7.09 0 0 0-7.083-7.083zm-21.25 7.083a3.545 3.545 0 0 1-3.542 3.542h-21.25a3.545 3.545 0 0 1-3.542-3.542v-21.25a3.545 3.545 0 0 1 3.542-3.542h21.25a3.545 3.545 0 0 1 3.542 3.542v21.25z" fill="url(#paint0_linear)"></path><defs><linearGradient id="paint0_linear" x1="85" y1="42.5" x2="0" y2="42.5" gradientUnits="userSpaceOnUse"><stop stop-color="#06EA84"></stop><stop offset="1" stop-color="#2BC47B"></stop></linearGradient></defs></svg>