<svg viewBox="0 0 89 76" fill="none" xmlns="http://www.w3.org/2000/svg"><path d="M85.523 34.555c1.92 0 3.477-1.547 3.477-3.456V13.822C89 6.201 82.762 0 75.094 0H13.906C6.238 0 0 6.2 0 13.822v34.555c0 7.621 6.238 13.822 13.906 13.822h27.117v6.89H28.855c-1.92 0-3.476 1.547-3.476 3.456 0 1.908 1.556 3.455 3.476 3.455h31.29c1.92 0 3.476-1.547 3.476-3.456 0-1.908-1.556-3.455-3.477-3.455H47.977v-6.89h27.117C82.762 62.2 89 56 89 48.377c0-1.908-1.556-3.456-3.477-3.456-1.92 0-3.476 1.548-3.476 3.456 0 3.81-3.12 6.911-6.953 6.911H13.906c-3.834 0-6.953-3.1-6.953-6.911V13.822c0-3.81 3.12-6.911 6.953-6.911h61.188c3.834 0 6.953 3.1 6.953 6.911v17.277c0 1.909 1.556 3.456 3.476 3.456z" fill="url(#paint0_linear)"></path><path fill-rule="evenodd" clip-rule="evenodd" d="M42.023 61.2v8.889H28.855a2.466 2.466 0 0 0-2.476 2.456A2.466 2.466 0 0 0 28.855 75h31.29a2.466 2.466 0 0 0 2.476-2.456 2.466 2.466 0 0 0-2.477-2.455H46.977v-8.89h28.117C82.215 61.2 88 55.441 88 48.377a2.466 2.466 0 0 0-2.477-2.456 2.466 2.466 0 0 0-2.476 2.456c0 4.369-3.573 7.911-7.953 7.911H13.906c-4.38 0-7.953-3.542-7.953-7.911V13.822c0-4.369 3.573-7.911 7.953-7.911h61.188c4.38 0 7.953 3.542 7.953 7.911v17.277a2.466 2.466 0 0 0 2.476 2.456A2.466 2.466 0 0 0 88 31.099V13.822C88 6.759 82.215 1 75.094 1H13.906C6.785 1 1 6.759 1 13.822v34.555c0 7.063 5.785 12.822 12.906 12.822h28.117zM89 31.1c0 1.908-1.556 3.455-3.477 3.455-1.92 0-3.476-1.547-3.476-3.456V13.822c0-3.81-3.12-6.911-6.953-6.911H13.906c-3.834 0-6.953 3.1-6.953 6.911v34.555c0 3.81 3.12 6.911 6.953 6.911h61.188c3.834 0 6.953-3.1 6.953-6.911 0-1.908 1.556-3.456 3.476-3.456S89 46.47 89 48.378c0 7.621-6.238 13.822-13.906 13.822H47.977v6.89h12.168c1.92 0 3.476 1.547 3.476 3.456 0 1.908-1.556 3.455-3.477 3.455H28.857c-1.92 0-3.477-1.547-3.477-3.456 0-1.908 1.556-3.455 3.476-3.455h12.168v-6.89H13.906C6.238 62.2 0 56 0 48.377V13.822C0 6.201 6.238 0 13.906 0h61.188C82.762 0 89 6.2 89 13.822v17.277z" fill="url(#paint1_linear)"></path><path d="M65 24.175v9.9c0 1.58-1.29 2.87-2.868 2.87a2.877 2.877 0 0 1-2.868-2.87v-6.959l-9.809 9.8a6.556 6.556 0 0 1-9.063.202l-1.463-1.335a.832.832 0 0 0-1.161.043l-8.82 9.284c-.559.589-1.319.89-2.08.89a2.87 2.87 0 0 1-1.978-.79 2.877 2.877 0 0 1-.1-4.06l8.833-9.298c1.205-1.249 2.811-1.98 4.532-2.038a6.463 6.463 0 0 1 4.646 1.722l1.463 1.334a.827.827 0 0 0 1.147-.028l10.11-10.102h-7.156a2.877 2.877 0 0 1-2.868-2.87c0-1.579 1.29-2.87 2.868-2.87h9.465A7.175 7.175 0 0 1 65 24.175z" fill="url(#paint2_linear)"></path><defs><linearGradient id="paint0_linear" x1="89" y1="38" x2="0" y2="38" gradientUnits="userSpaceOnUse"><stop stop-color="#06EA84"></stop><stop offset="1" stop-color="#2BC47B"></stop></linearGradient><linearGradient id="paint1_linear" x1="89" y1="38" x2="0" y2="38" gradientUnits="userSpaceOnUse"><stop stop-color="#06EA84"></stop><stop offset="1" stop-color="#2BC47B"></stop></linearGradient><linearGradient id="paint2_linear" x1="65" y1="31.5" x2="24" y2="31.5" gradientUnits="userSpaceOnUse"><stop stop-color="#06EA84"></stop><stop offset="1" stop-color="#2BC47B"></stop></linearGradient></defs></svg>