<svg viewBox="0 0 84 100" fill="none" xmlns="http://www.w3.org/2000/svg"><path d="M55.37 36.782H26.403c-6.563 0-11.903-5.016-11.903-11.18 0-5.732 4.615-10.467 10.535-11.108C26.898 7.274 33.92 2 42 2c6.358 0 12.235 3.272 15.273 8.42 6.937.852 12.227 6.43 12.227 13.113 0 7.304-6.34 13.249-14.13 13.249zM42 5.727c-6.795 0-12.628 4.658-13.565 10.837a1.873 1.873 0 0 1-1.855 1.585c-4.672 0-8.33 3.344-8.33 7.453 0 4.11 3.657 7.453 8.152 7.453H55.37c5.725 0 10.38-4.273 10.38-9.522 0-5.036-4.278-9.203-9.74-9.484a1.871 1.871 0 0 1-1.58-1.028C52.205 8.589 47.325 5.727 42 5.727z" fill="url(#paint0_linear)"></path><path d="M47.625 61.626h-11.25c-2.413 0-4.375-1.95-4.375-4.347v-8.696c0-2.397 1.962-4.348 4.375-4.348h11.25c2.413 0 4.375 1.95 4.375 4.348v8.696c0 2.397-1.962 4.347-4.375 4.347zm-11.25-13.664a.623.623 0 0 0-.625.621v8.696c0 .342.28.62.625.62h11.25a.623.623 0 0 0 .625-.62v-8.696a.623.623 0 0 0-.625-.621h-11.25z" fill="url(#paint1_linear)"></path><path d="M58.172 98H24.656c-2.412 0-4.375-1.95-4.375-4.348V75.64c0-2.397 1.963-4.348 4.375-4.348h33.516c2.412 0 4.375 1.95 4.375 4.348v18.012c0 2.398-1.963 4.348-4.375 4.348zM24.656 75.019a.623.623 0 0 0-.625.621v18.012c0 .343.28.621.625.621h33.516a.623.623 0 0 0 .625-.62V75.64a.623.623 0 0 0-.625-.621H24.656z" fill="url(#paint2_linear)"></path><path d="M42 46.72a1.87 1.87 0 0 1-1.875-1.864V34.92A1.87 1.87 0 0 1 42 33.055a1.87 1.87 0 0 1 1.875 1.864v9.937A1.87 1.87 0 0 1 42 46.72z" fill="url(#paint3_linear)"></path><path d="M42 73.427a1.87 1.87 0 0 1-1.875-1.863v-9.938A1.87 1.87 0 0 1 42 59.763a1.87 1.87 0 0 1 1.875 1.863v9.938A1.87 1.87 0 0 1 42 73.427z" fill="url(#paint4_linear)"></path><path d="M80.125 55.415H50.75a1.87 1.87 0 0 1-1.875-1.863 1.87 1.87 0 0 1 1.875-1.863h29.375A1.87 1.87 0 0 1 82 53.552a1.87 1.87 0 0 1-1.875 1.863z" fill="url(#paint5_linear)"></path><path d="M33.25 55.415H3.875A1.87 1.87 0 0 1 2 53.552a1.87 1.87 0 0 1 1.875-1.863H33.25a1.87 1.87 0 0 1 1.875 1.863 1.87 1.87 0 0 1-1.875 1.863z" fill="url(#paint6_linear)"></path><path d="M55.37 36.782H26.403c-6.563 0-11.903-5.016-11.903-11.18 0-5.732 4.615-10.467 10.535-11.108C26.898 7.274 33.92 2 42 2c6.358 0 12.235 3.272 15.273 8.42 6.937.852 12.227 6.43 12.227 13.113 0 7.304-6.34 13.249-14.13 13.249zM42 5.727c-6.795 0-12.628 4.658-13.565 10.837a1.873 1.873 0 0 1-1.855 1.585c-4.672 0-8.33 3.344-8.33 7.453 0 4.11 3.657 7.453 8.152 7.453H55.37c5.725 0 10.38-4.273 10.38-9.522 0-5.036-4.278-9.203-9.74-9.484a1.871 1.871 0 0 1-1.58-1.028C52.205 8.589 47.325 5.727 42 5.727z" stroke="url(#paint7_linear)" stroke-width="3.5"></path><path d="M47.625 61.626h-11.25c-2.413 0-4.375-1.95-4.375-4.347v-8.696c0-2.397 1.962-4.348 4.375-4.348h11.25c2.413 0 4.375 1.95 4.375 4.348v8.696c0 2.397-1.962 4.347-4.375 4.347zm-11.25-13.664a.623.623 0 0 0-.625.621v8.696c0 .342.28.62.625.62h11.25a.623.623 0 0 0 .625-.62v-8.696a.623.623 0 0 0-.625-.621h-11.25z" stroke="url(#paint8_linear)" stroke-width="3.5"></path><path d="M58.172 98H24.656c-2.412 0-4.375-1.95-4.375-4.348V75.64c0-2.397 1.963-4.348 4.375-4.348h33.516c2.412 0 4.375 1.95 4.375 4.348v18.012c0 2.398-1.963 4.348-4.375 4.348zM24.656 75.019a.623.623 0 0 0-.625.621v18.012c0 .343.28.621.625.621h33.516a.623.623 0 0 0 .625-.62V75.64a.623.623 0 0 0-.625-.621H24.656z" stroke="url(#paint9_linear)" stroke-width="3.5"></path><path d="M42 46.72a1.87 1.87 0 0 1-1.875-1.864V34.92A1.87 1.87 0 0 1 42 33.055a1.87 1.87 0 0 1 1.875 1.864v9.937A1.87 1.87 0 0 1 42 46.72z" stroke="url(#paint10_linear)" stroke-width="3.5"></path><path d="M42 73.427a1.87 1.87 0 0 1-1.875-1.863v-9.938A1.87 1.87 0 0 1 42 59.763a1.87 1.87 0 0 1 1.875 1.863v9.938A1.87 1.87 0 0 1 42 73.427z" stroke="url(#paint11_linear)" stroke-width="3.5"></path><path d="M80.125 55.415H50.75a1.87 1.87 0 0 1-1.875-1.863 1.87 1.87 0 0 1 1.875-1.863h29.375A1.87 1.87 0 0 1 82 53.552a1.87 1.87 0 0 1-1.875 1.863z" stroke="url(#paint12_linear)" stroke-width="3.5"></path><path d="M33.25 55.415H3.875A1.87 1.87 0 0 1 2 53.552a1.87 1.87 0 0 1 1.875-1.863H33.25a1.87 1.87 0 0 1 1.875 1.863 1.87 1.87 0 0 1-1.875 1.863z" stroke="url(#paint13_linear)" stroke-width="3.5"></path><defs><linearGradient id="paint0_linear" x1="82" y1="50" x2="2" y2="50" gradientUnits="userSpaceOnUse"><stop stop-color="#06EA84"></stop><stop offset="1" stop-color="#2BC47B"></stop></linearGradient><linearGradient id="paint1_linear" x1="82" y1="50" x2="2" y2="50" gradientUnits="userSpaceOnUse"><stop stop-color="#06EA84"></stop><stop offset="1" stop-color="#2BC47B"></stop></linearGradient><linearGradient id="paint2_linear" x1="82" y1="50" x2="2" y2="50" gradientUnits="userSpaceOnUse"><stop stop-color="#06EA84"></stop><stop offset="1" stop-color="#2BC47B"></stop></linearGradient><linearGradient id="paint3_linear" x1="82" y1="50" x2="2" y2="50" gradientUnits="userSpaceOnUse"><stop stop-color="#06EA84"></stop><stop offset="1" stop-color="#2BC47B"></stop></linearGradient><linearGradient id="paint4_linear" x1="82" y1="50" x2="2" y2="50" gradientUnits="userSpaceOnUse"><stop stop-color="#06EA84"></stop><stop offset="1" stop-color="#2BC47B"></stop></linearGradient><linearGradient id="paint5_linear" x1="82" y1="50" x2="2" y2="50" gradientUnits="userSpaceOnUse"><stop stop-color="#06EA84"></stop><stop offset="1" stop-color="#2BC47B"></stop></linearGradient><linearGradient id="paint6_linear" x1="82" y1="50" x2="2" y2="50" gradientUnits="userSpaceOnUse"><stop stop-color="#06EA84"></stop><stop offset="1" stop-color="#2BC47B"></stop></linearGradient><linearGradient id="paint7_linear" x1="82" y1="50" x2="2" y2="50" gradientUnits="userSpaceOnUse"><stop stop-color="#06EA84"></stop><stop offset="1" stop-color="#2BC47B"></stop></linearGradient><linearGradient id="paint8_linear" x1="82" y1="50" x2="2" y2="50" gradientUnits="userSpaceOnUse"><stop stop-color="#06EA84"></stop><stop offset="1" stop-color="#2BC47B"></stop></linearGradient><linearGradient id="paint9_linear" x1="82" y1="50" x2="2" y2="50" gradientUnits="userSpaceOnUse"><stop stop-color="#06EA84"></stop><stop offset="1" stop-color="#2BC47B"></stop></linearGradient><linearGradient id="paint10_linear" x1="82" y1="50" x2="2" y2="50" gradientUnits="userSpaceOnUse"><stop stop-color="#06EA84"></stop><stop offset="1" stop-color="#2BC47B"></stop></linearGradient><linearGradient id="paint11_linear" x1="82" y1="50" x2="2" y2="50" gradientUnits="userSpaceOnUse"><stop stop-color="#06EA84"></stop><stop offset="1" stop-color="#2BC47B"></stop></linearGradient><linearGradient id="paint12_linear" x1="82" y1="50" x2="2" y2="50" gradientUnits="userSpaceOnUse"><stop stop-color="#06EA84"></stop><stop offset="1" stop-color="#2BC47B"></stop></linearGradient><linearGradient id="paint13_linear" x1="82" y1="50" x2="2" y2="50" gradientUnits="userSpaceOnUse"><stop stop-color="#06EA84"></stop><stop offset="1" stop-color="#2BC47B"></stop></linearGradient></defs></svg>