<svg viewBox="0 0 152 78" fill="none" xmlns="http://www.w3.org/2000/svg"><path d="M41.523 62.2v-.5H13.906C6.512 61.7.5 55.72.5 48.376V13.822C.5 6.48 6.512.5 13.906.5h61.188C82.488.5 88.5 6.48 88.5 13.822v17.277c0 1.63-1.33 2.956-2.977 2.956a2.966 2.966 0 0 1-2.976-2.956V13.822c0-4.09-3.346-7.411-7.453-7.411H13.906c-4.107 0-7.453 3.321-7.453 7.411v34.555c0 4.09 3.346 7.411 7.453 7.411h61.188c4.107 0 7.453-3.321 7.453-7.411 0-1.63 1.33-2.956 2.976-2.956a2.966 2.966 0 0 1 2.977 2.956c0 7.342-6.012 13.322-13.406 13.322H47.477v7.89h12.668a2.966 2.966 0 0 1 2.976 2.956c0 1.629-1.33 2.955-2.977 2.955H28.857a2.966 2.966 0 0 1-2.977-2.956c0-1.629 1.33-2.955 2.976-2.955h12.668v-7.39z" fill="url(#paint0_linear)" stroke="url(#paint1_linear)"></path><path d="M150.339 43.24a.925.925 0 0 0-.017-.116 1.402 1.402 0 0 0-.104-.387c-.012-.026-.009-.051-.02-.075-.011-.024-.023-.024-.03-.038a1.395 1.395 0 0 0-.302-.387c-.024-.021-.052-.034-.077-.053a1.591 1.591 0 0 0-.223-.154l-19.762-9.881a1.412 1.412 0 0 0-1.262 0l-29.761 9.88c-.479.24-.781.729-.781 1.264v21.408c-.003.537.3 1.03.78 1.27l19.762 9.88c.013 0 .027 0 .04.01.372.186.81.186 1.183 0 .012 0 .026 0 .039-.01l29.762-9.88c.48-.24.783-.733.78-1.27V43.293c0-.018-.007-.034-.007-.052zm-2.816 20.588l-26.938 8.47v-3.363a1.412 1.412 0 0 0-2.823 0v3.362l-16.939-8.469V44.165l28.35-9.175 16.605 8.303-26.619 8.31-8.115-3.76a1.412 1.412 0 0 0-1.219 2.54l7.937 3.68v17.226a1.411 1.411 0 1 0 2.823 0V54.046l26.938-8.47v18.252z" fill="#08E984" stroke="#06EA84" stroke-width="3"></path><path d="M34.733 20.226v2.634h-6.005v16.616h6.027v2.567H26V20.226h8.733z" fill="url(#paint2_linear)"></path><path d="M54.786 42.043v-2.634h6.005V22.793h-6.026v-2.567h8.755v21.817h-8.734z" fill="url(#paint3_linear)"></path><path d="M39.114 14.174L41.4 13l11.003 21.516-10.322-2.87 8.33 16.309-2.287 1.175-11.007-21.541 10.343 2.903-8.346-16.318z" fill="url(#paint4_linear)"></path><path d="M34.733 20.226v2.634h-6.005v16.616h6.027v2.567H26V20.226h8.733z" stroke="url(#paint5_linear)"></path><path d="M54.786 42.043v-2.634h6.005V22.793h-6.026v-2.567h8.755v21.817h-8.734z" stroke="url(#paint6_linear)"></path><path d="M39.114 14.174L41.4 13l11.003 21.516-10.322-2.87 8.33 16.309-2.287 1.175-11.007-21.541 10.343 2.903-8.346-16.318z" stroke="url(#paint7_linear)"></path><defs><linearGradient id="paint0_linear" x1="89" y1="38" x2="0" y2="38" gradientUnits="userSpaceOnUse"><stop stop-color="#06EA84"></stop><stop offset="1" stop-color="#2BC47B"></stop></linearGradient><linearGradient id="paint1_linear" x1="89" y1="38" x2="0" y2="38" gradientUnits="userSpaceOnUse"><stop stop-color="#06EA84"></stop><stop offset="1" stop-color="#2BC47B"></stop></linearGradient><linearGradient id="paint2_linear" x1="63.52" y1="31.065" x2="26" y2="31.065" gradientUnits="userSpaceOnUse"><stop stop-color="#06EA84"></stop><stop offset="1" stop-color="#2BC47B"></stop></linearGradient><linearGradient id="paint3_linear" x1="63.52" y1="31.065" x2="26" y2="31.065" gradientUnits="userSpaceOnUse"><stop stop-color="#06EA84"></stop><stop offset="1" stop-color="#2BC47B"></stop></linearGradient><linearGradient id="paint4_linear" x1="63.52" y1="31.065" x2="26" y2="31.065" gradientUnits="userSpaceOnUse"><stop stop-color="#06EA84"></stop><stop offset="1" stop-color="#2BC47B"></stop></linearGradient><linearGradient id="paint5_linear" x1="63.52" y1="31.065" x2="26" y2="31.065" gradientUnits="userSpaceOnUse"><stop stop-color="#06EA84"></stop><stop offset="1" stop-color="#2BC47B"></stop></linearGradient><linearGradient id="paint6_linear" x1="63.52" y1="31.065" x2="26" y2="31.065" gradientUnits="userSpaceOnUse"><stop stop-color="#06EA84"></stop><stop offset="1" stop-color="#2BC47B"></stop></linearGradient><linearGradient id="paint7_linear" x1="63.52" y1="31.065" x2="26" y2="31.065" gradientUnits="userSpaceOnUse"><stop stop-color="#06EA84"></stop><stop offset="1" stop-color="#2BC47B"></stop></linearGradient></defs></svg>